<svg width="29" height="26" viewBox="0 0 29 26" fill="none" xmlns="http://www.w3.org/2000/svg">
<path fill-rule="evenodd" clip-rule="evenodd" d="M14.6641 20.261C14.8231 20.2084 14.9591 20.1201 15.0661 20.0081L17.3218 19.7656L20.6665 20.0383C21.2222 20.0836 21.7049 19.6781 21.7448 19.1326L22.7074 5.96207C22.7473 5.41661 22.3292 4.93771 21.7735 4.89241L16.55 4.46662C16.3395 4.2713 16.0475 4.1642 15.7405 4.1972L14.6641 4.31289L14.5682 4.30507C14.4066 4.2919 14.2511 4.31687 14.1109 4.37234L7.88845 5.0411C7.43012 5.09036 7.08221 5.43629 7.01656 5.86412L2.23973 7.44361C1.71537 7.61699 1.44195 8.17879 1.62903 8.69842L6.39705 21.9417C6.58413 22.4613 7.16087 22.742 7.68524 22.5686L14.6641 20.261Z" fill="#03658C"/>
<path fill-rule="evenodd" clip-rule="evenodd" d="M7.88788 23.1314L14.4201 20.9715L16.7385 20.7126L20.3974 20.9843C21.4996 21.0661 22.4565 20.2627 22.5438 19.182L23.5936 6.20069C23.6825 5.1011 22.8386 4.13431 21.7171 4.05103L14.367 3.50516C13.7707 3.46088 13.2215 3.67541 12.8277 4.0467L7.72677 4.61632C7.01133 4.69622 6.43339 5.13646 6.15209 5.7318L2.10522 7.06992C1.0565 7.41669 0.509661 8.54029 0.883831 9.57955L5.3115 21.8775C5.68567 22.9168 6.83915 23.4781 7.88788 23.1314ZM11.2298 18.6303C11.1968 19.0315 11.3293 19.4116 11.5711 19.7045L8.97467 19.8061C8.70257 19.8167 8.4667 19.6123 8.44228 19.3447L7.21817 5.93567C7.37634 5.75528 7.60105 5.63091 7.86082 5.6019L12.3449 5.10116L11.7834 11.9145C11.7442 11.9091 11.7048 11.9032 11.6654 11.8968L11.6477 10.0246C11.7398 10.0079 11.8361 9.99509 11.9359 9.98619L12.0139 8.99166L12.0084 8.99196C11.8863 8.99864 11.7624 9.00992 11.6382 9.02686L11.6307 8.23007L10.8224 8.27162L10.8314 9.23226C10.71 9.28073 10.592 9.33769 10.479 9.40431C9.99926 9.6873 9.63369 10.1331 9.49812 10.7673C9.39904 11.2308 9.48432 11.6421 9.7239 11.976C9.95141 12.2932 10.2859 12.4962 10.609 12.6288C10.6924 12.6629 10.7778 12.6936 10.8644 12.7211L10.8866 15.0683C10.6506 15.0022 10.4347 14.9099 10.2526 14.7924L9.6931 15.6149C10.0496 15.8449 10.4645 15.9984 10.8963 16.0864L10.9051 17.0196L11.3645 16.996L11.2298 18.6303ZM11.6748 12.8958L11.7022 12.8994L11.6777 13.1967L11.6748 12.8958ZM19.1221 19.8933L19.1219 19.8964L20.4526 19.9952C21.0085 20.0365 21.4949 19.6281 21.5389 19.0831L22.5887 6.10176C22.6327 5.55669 22.2178 5.08136 21.6619 5.04008L14.3118 4.49421C13.9188 4.46503 13.5605 4.66059 13.3688 4.97029L12.2346 18.7308C12.2121 19.004 12.4199 19.2477 12.6982 19.2745L19.1221 19.8933ZM12.1289 20.6762L7.54913 22.1905C7.02477 22.3639 6.44803 22.0832 6.26094 21.5636L1.83327 9.26561C1.64619 8.74598 1.91961 8.18418 2.44397 8.0108L6.28151 6.74189L6.5957 10.1836C6.5285 10.2092 6.46144 10.2365 6.39487 10.2657L6.15058 9.50275L5.38531 9.76402L5.67983 10.6839C5.57759 10.7636 5.48116 10.8506 5.3925 10.9455C5.01626 11.3481 4.79875 11.8749 4.85705 12.5185C4.89964 12.9887 5.10292 13.3587 5.43126 13.6131C5.74341 13.855 6.12449 13.9584 6.47417 13.9974C6.56431 14.0075 6.65546 14.0136 6.74676 14.0163L7.02489 14.885L7.14912 16.2459C7.01979 16.231 6.89586 16.2064 6.77965 16.1714L6.48264 17.1098C6.7259 17.1829 6.98083 17.2246 7.23983 17.2395L7.43827 19.4132C7.51155 20.216 8.21915 20.8291 9.03546 20.7972L12.1289 20.6762ZM16.913 7.28541L16.7453 8.2322C16.6168 8.25938 16.4901 8.29551 16.3667 8.342C15.8425 8.53945 15.4005 8.91649 15.1503 9.51807C14.9674 9.95776 14.9757 10.3772 15.1501 10.7465C15.3157 11.0972 15.6076 11.3535 15.9012 11.5385C15.9769 11.5863 16.0555 11.6309 16.1357 11.6726L15.7257 13.9864C15.5053 13.8813 15.3095 13.7538 15.1518 13.6073L14.4502 14.3231C14.7588 14.6098 15.139 14.831 15.5478 14.9905L15.3848 15.9104L16.1876 16.006L16.3276 15.2163C16.5226 15.2549 16.7181 15.2812 16.91 15.2955C17.0381 15.3051 17.1685 15.3095 17.2994 15.3083L17.1691 16.1229L17.9711 16.2185L18.1314 15.2164C18.5741 15.117 18.9808 14.9319 19.2804 14.6358C19.8365 14.0861 19.983 13.3009 19.7258 12.6154C19.5546 12.159 19.2133 11.7632 18.7263 11.4968L19.0483 9.48358C19.3948 9.61521 19.6721 9.75938 19.8155 9.86289L20.4219 9.06905C20.1687 8.88625 19.7284 8.66505 19.2077 8.48714L19.3534 7.57613L18.5514 7.48059L18.4248 8.27208C18.2673 8.23949 18.1075 8.21309 17.9477 8.19458C17.8262 8.18051 17.7021 8.17068 17.5767 8.16638L17.7158 7.38105L16.913 7.28541ZM16.0888 9.88364C16.1957 9.62656 16.3534 9.45739 16.548 9.34562L16.3227 10.6171C16.1955 10.5186 16.114 10.4211 16.0708 10.3298C16.023 10.2286 16.0014 10.0937 16.0888 9.88364ZM16.5001 14.2425L16.9007 11.9814C17.1889 12.0711 17.4568 12.1297 17.6559 12.1648C17.7048 12.1734 17.752 12.1834 17.7974 12.1945L17.458 14.3169C17.3122 14.3252 17.1568 14.3241 16.9936 14.3119C16.8273 14.2995 16.6617 14.2761 16.5001 14.2425ZM17.8422 11.194C17.8799 11.2007 17.9172 11.2079 17.954 11.2157L18.2684 9.24977C18.1219 9.21758 17.9721 9.19159 17.822 9.17422C17.6764 9.15735 17.5359 9.14931 17.4023 9.1506L17.0753 10.9958C17.3515 11.0915 17.6293 11.1565 17.8422 11.194ZM18.3068 14.1194L18.5493 12.6035C18.6553 12.7157 18.7288 12.838 18.7742 12.959C18.9039 13.3046 18.8272 13.6825 18.561 13.9456C18.4962 14.0097 18.4106 14.0684 18.3068 14.1194ZM10.4897 10.9683C10.5476 10.6973 10.6716 10.5043 10.8421 10.3615L10.8543 11.6509C10.7114 11.5755 10.6134 11.4935 10.5542 11.4109C10.4885 11.3193 10.4423 11.19 10.4897 10.9683ZM6.02521 11.7627C5.90573 11.9453 5.84495 12.1635 5.86983 12.4382C5.89036 12.6649 5.97368 12.7773 6.06441 12.8476C6.14522 12.9102 6.26233 12.9618 6.41975 12.995L6.02521 11.7627Z" fill="#CDE0E8"/>
</svg>
