<svg width="16" height="12" viewBox="0 0 16 12" fill="none" xmlns="http://www.w3.org/2000/svg">
<g clip-path="url(#clip0_539_905)">
<g clip-path="url(#clip1_539_905)">
<path d="M4.39686 0.813568H10.8607C11.079 0.813568 11.2575 0.630023 11.2575 0.41175C11.2575 0.193479 11.079 0.0148926 10.8607 0.0148926H4.39686C4.17859 0.0148926 4 0.193479 4 0.41175C4 0.630023 4.17859 0.813568 4.39686 0.813568ZM7.63126 6.66227C9.64034 6.66227 11.079 6.15132 11.079 5.42705C11.079 4.70775 9.63043 4.20175 7.63126 4.20175C5.63208 4.20175 4.17859 4.70775 4.17859 5.42705C4.17859 6.15132 5.63208 6.66227 7.63126 6.66227ZM7.46258 9.02356H7.79495C9.46176 9.02356 10.7367 8.05127 11.0244 6.43407C10.3497 6.91527 9.14427 7.18811 7.63126 7.18811C6.12319 7.18811 4.90781 6.91527 4.23811 6.42911C4.51592 8.05127 5.79578 9.02356 7.46258 9.02356ZM7.63126 12C8.43488 12 9.50641 11.7817 9.97769 11.3105C10.1067 11.1815 10.1116 11.0128 10.0571 10.8342L9.5709 9.21207C9.03018 9.45019 8.41504 9.57421 7.79991 9.57421H7.44275C6.83754 9.57421 6.22737 9.45517 5.68665 9.222L5.2005 10.8342C5.14593 11.0128 5.15585 11.1815 5.27987 11.3105C5.7561 11.7817 6.82266 12 7.63126 12ZM10.4936 4.10252L10.6871 1.36421H4.57048L4.76891 4.10252C5.4783 3.80985 6.4754 3.65111 7.63126 3.65111C8.78711 3.65111 9.7842 3.80985 10.4936 4.10252Z" fill="white"/>
</g>
<rect x="2.21213" y="11.8522" width="16.4615" height="0.7" rx="0.35" transform="rotate(-45 2.21213 11.8522)" fill="white" stroke="#1E1E1E" stroke-width="0.3"/>
</g>
<defs>
<clipPath id="clip0_539_905">
<rect width="16" height="12" fill="white"/>
</clipPath>
<clipPath id="clip1_539_905">
<rect width="7.35179" height="12" fill="white" transform="translate(4)"/>
</clipPath>
</defs>
</svg>
