<svg width="24" height="18" viewBox="0 0 24 18" fill="none" xmlns="http://www.w3.org/2000/svg">
<g clip-path="url(#clip0_174_2340)">
<path d="M7.36911 17.8836C7.69336 17.8836 7.95941 17.6175 7.95941 17.2933C7.95941 16.9691 7.69336 16.703 7.36911 16.703C7.04486 16.703 6.77881 16.9691 6.77881 17.2933C6.77881 17.6175 7.04486 17.8836 7.36911 17.8836ZM10.146 17.8836C10.4703 17.8836 10.7363 17.6175 10.7363 17.2933C10.7363 16.9691 10.4703 16.703 10.146 16.703C9.82177 16.703 9.55572 16.9691 9.55572 17.2933C9.55572 17.6175 9.82177 17.8836 10.146 17.8836ZM12.9146 17.8836C13.2388 17.8836 13.5049 17.6175 13.5049 17.2933C13.5049 16.9691 13.2388 16.703 12.9146 16.703C12.5904 16.703 12.3243 16.9691 12.3243 17.2933C12.3243 17.6175 12.5904 17.8836 12.9146 17.8836Z" fill="#03658C"/>
<path d="M7.36911 15.406C7.69336 15.406 7.95941 15.1399 7.95941 14.8157C7.95941 14.4915 7.69336 14.2254 7.36911 14.2254C7.04486 14.2254 6.77881 14.4915 6.77881 14.8157C6.77881 15.1399 7.04486 15.406 7.36911 15.406ZM10.146 15.406C10.4703 15.406 10.7363 15.1399 10.7363 14.8157C10.7363 14.4915 10.4703 14.2254 10.146 14.2254C9.82177 14.2254 9.55572 14.4915 9.55572 14.8157C9.55572 15.1399 9.82177 15.406 10.146 15.406ZM12.9146 15.406C13.2388 15.406 13.5049 15.1399 13.5049 14.8157C13.5049 14.4915 13.2388 14.2254 12.9146 14.2254C12.5904 14.2254 12.3243 14.4915 12.3243 14.8157C12.3243 15.1399 12.5904 15.406 12.9146 15.406Z" fill="#03658C"/>
<path d="M7.36911 12.9201C7.69336 12.9201 7.95941 12.6623 7.95941 12.3298C7.95941 12.0055 7.69336 11.7395 7.36911 11.7395C7.04486 11.7395 6.77881 12.0055 6.77881 12.3298C6.77881 12.6623 7.04486 12.9201 7.36911 12.9201ZM10.146 12.9201C10.4703 12.9201 10.7363 12.6623 10.7363 12.3298C10.7363 12.0055 10.4703 11.7395 10.146 11.7395C9.82177 11.7395 9.55572 12.0055 9.55572 12.3298C9.55572 12.6623 9.82177 12.9201 10.146 12.9201ZM12.9146 12.9201C13.2388 12.9201 13.5049 12.6623 13.5049 12.3298C13.5049 12.0055 13.2388 11.7395 12.9146 11.7395C12.5904 11.7395 12.3243 12.0055 12.3243 12.3298C12.3243 12.6623 12.5904 12.9201 12.9146 12.9201Z" fill="#03658C"/>
<path d="M14.0786 0H11.8254C10.4121 0 9.53077 0.864664 9.53077 2.2448V3.70808H10.7862V2.2448C10.7862 1.63788 11.177 1.26374 11.8254 1.26374H14.0786C15.8744 1.26374 17.0301 2.51085 17.0301 4.43972V17.3432C17.0301 17.7173 17.2878 17.9834 17.6536 17.9834C18.0194 17.9834 18.2855 17.7173 18.2855 17.3432V4.43972C18.2855 1.73764 16.6476 0 14.0786 0ZM4.80005 10.1598C4.80005 10.4591 5.04947 10.7002 5.34878 10.7002H14.9682C15.2675 10.7002 15.5086 10.4591 15.5086 10.1598C15.5086 9.86051 15.2758 9.61106 14.9848 9.61106H14.9349C14.8684 7.82355 13.7294 6.27713 12.158 5.54547V4.90529C12.158 3.75796 11.3266 2.90993 10.1543 2.90993C8.98203 2.90993 8.15062 3.75796 8.15062 4.90529V5.54547C6.57926 6.27713 5.44023 7.82355 5.37372 9.61106H5.33215C5.04116 9.61106 4.80005 9.86051 4.80005 10.1598Z" fill="#03658C"/>
</g>
<defs>
<clipPath id="clip0_174_2340">
<rect width="13.6434" height="18" fill="white" transform="translate(4.80005)"/>
</clipPath>
</defs>
</svg>
