<svg width="59" height="21" viewBox="0 0 59 21" fill="none" xmlns="http://www.w3.org/2000/svg">
<path d="M10.1152 10.417C8.22559 10.417 6.59961 8.72949 6.59961 6.5498C6.59961 4.39648 8.23438 2.75293 10.1152 2.75293C11.9961 2.75293 13.6309 4.36133 13.6309 6.53223C13.6309 8.72949 11.9961 10.417 10.1152 10.417ZM4.21777 18.5557C3.27734 18.5557 2.71484 18.1162 2.71484 17.3867C2.71484 15.1191 5.55371 11.9902 10.1064 11.9902C14.668 11.9902 17.5068 15.1191 17.5068 17.3867C17.5068 18.1162 16.9443 18.5557 16.0039 18.5557H4.21777Z" fill="#024762"/>
<path d="M27.5538 10.417C25.6642 10.417 24.0382 8.72949 24.0382 6.5498C24.0382 4.39648 25.673 2.75293 27.5538 2.75293C29.4347 2.75293 31.0695 4.36133 31.0695 6.53223C31.0695 8.72949 29.4347 10.417 27.5538 10.417ZM21.6564 18.5557C20.7159 18.5557 20.1534 18.1162 20.1534 17.3867C20.1534 15.1191 22.9923 11.9902 27.545 11.9902C32.1066 11.9902 34.9454 15.1191 34.9454 17.3867C34.9454 18.1162 34.3829 18.5557 33.4425 18.5557H21.6564Z" fill="#024762"/>
<path d="M45.9924 10.417C44.1028 10.417 42.4768 8.72949 42.4768 6.5498C42.4768 4.39648 44.1116 2.75293 45.9924 2.75293C47.8733 2.75293 49.5081 4.36133 49.5081 6.53223C49.5081 8.72949 47.8733 10.417 45.9924 10.417ZM40.095 18.5557C39.1545 18.5557 38.592 18.1162 38.592 17.3867C38.592 15.1191 41.4309 11.9902 45.9836 11.9902C50.5452 11.9902 53.384 15.1191 53.384 17.3867C53.384 18.1162 52.8215 18.5557 51.8811 18.5557H40.095Z" fill="#81B2C6"/>
</svg>
