<svg width="71" height="26" viewBox="0 0 71 26" fill="none" xmlns="http://www.w3.org/2000/svg">
<path d="M17.1152 12.417C15.2256 12.417 13.5996 10.7295 13.5996 8.5498C13.5996 6.39648 15.2344 4.75293 17.1152 4.75293C18.9961 4.75293 20.6309 6.36133 20.6309 8.53223C20.6309 10.7295 18.9961 12.417 17.1152 12.417ZM11.2178 20.5557C10.2773 20.5557 9.71484 20.1162 9.71484 19.3867C9.71484 17.1191 12.5537 13.9902 17.1064 13.9902C21.668 13.9902 24.5068 17.1191 24.5068 19.3867C24.5068 20.1162 23.9443 20.5557 23.0039 20.5557H11.2178Z" fill="#024762"/>
<path d="M34.5538 12.417C32.6642 12.417 31.0382 10.7295 31.0382 8.5498C31.0382 6.39648 32.673 4.75293 34.5538 4.75293C36.4347 4.75293 38.0695 6.36133 38.0695 8.53223C38.0695 10.7295 36.4347 12.417 34.5538 12.417ZM28.6564 20.5557C27.7159 20.5557 27.1534 20.1162 27.1534 19.3867C27.1534 17.1191 29.9923 13.9902 34.545 13.9902C39.1066 13.9902 41.9454 17.1191 41.9454 19.3867C41.9454 20.1162 41.3829 20.5557 40.4425 20.5557H28.6564Z" fill="#024762"/>
<path d="M52.9924 12.417C51.1028 12.417 49.4768 10.7295 49.4768 8.5498C49.4768 6.39648 51.1116 4.75293 52.9924 4.75293C54.8733 4.75293 56.5081 6.36133 56.5081 8.53223C56.5081 10.7295 54.8733 12.417 52.9924 12.417ZM47.095 20.5557C46.1545 20.5557 45.592 20.1162 45.592 19.3867C45.592 17.1191 48.4309 13.9902 52.9836 13.9902C57.5452 13.9902 60.384 17.1191 60.384 19.3867C60.384 20.1162 59.8215 20.5557 58.8811 20.5557H47.095Z" fill="#024762"/>
</svg>
