<svg width="16" height="12" viewBox="0 0 16 12" fill="none" xmlns="http://www.w3.org/2000/svg">
<g clip-path="url(#clip0_539_910)">
<g clip-path="url(#clip1_539_910)">
<path d="M8.00922 8.35895C9.20755 8.35895 9.54607 7.62535 10.609 7.35616L5.9172 2.50365C5.61254 2.19406 5.16569 2.14694 4.80013 2.40942L2.14617 4.28716C1.68579 4.60349 1.73319 5.08805 1.99723 5.37071C2.21387 5.61303 2.61332 5.71396 2.99245 5.44477L5.14541 3.93044L6.36405 5.17554C6.49945 5.31689 6.54007 5.53226 6.33018 5.67357L3.82521 7.30902C4.11632 7.28211 4.42773 7.26867 4.78657 7.28211C6.32342 7.34941 6.60777 8.35895 8.00922 8.35895ZM0.379134 10.1357H1.06293C2.87059 10.1357 3.28358 9.03196 4.53606 9.03196C5.78856 9.03196 6.20155 10.1357 8.00922 10.1357C9.82363 10.1357 10.2299 9.03196 11.4891 9.03196C12.7416 9.03196 13.1478 10.1357 14.9623 10.1357H15.6461C15.8559 10.1357 16.0252 9.9742 16.0252 9.76555C16.0252 9.55694 15.8559 9.38868 15.6461 9.38868H14.9623C13.6624 9.38868 13.2223 8.28493 11.4891 8.28493C9.74917 8.28493 9.30911 9.38868 8.00922 9.38868C6.70933 9.38868 6.27604 8.28493 4.53606 8.28493C2.80289 8.28493 2.36282 9.38868 1.06293 9.38868H0.379134C0.162486 9.38868 0 9.55694 0 9.76555C0 9.9742 0.162486 10.1357 0.379134 10.1357ZM0.379134 11.9933H1.06293C2.87059 11.9933 3.28358 10.8828 4.53606 10.8828C5.78856 10.8828 6.20155 11.9933 8.00922 11.9933C9.82363 11.9933 10.2299 10.8828 11.4891 10.8828C12.7416 10.8828 13.1478 11.9933 14.9623 11.9933H15.6461C15.8559 11.9933 16.0252 11.825 16.0252 11.6164C16.0252 11.4078 15.8559 11.2395 15.6461 11.2395H14.9623C13.6624 11.2395 13.2223 10.1357 11.4891 10.1357C9.74917 10.1357 9.30911 11.2395 8.00922 11.2395C6.70933 11.2395 6.27604 10.1357 4.53606 10.1357C2.80289 10.1357 2.36282 11.2395 1.06293 11.2395H0.379134C0.162486 11.2395 0 11.4078 0 11.6164C0 11.825 0.162486 11.9933 0.379134 11.9933ZM5.81564 0.376893C5.81564 0.585531 5.9849 0.753786 6.19479 0.753786C6.80411 0.753786 7.17646 0.86147 7.56237 1.28547C7.71132 1.447 7.86027 1.5143 8.00922 1.5143C8.16493 1.5143 8.31388 1.447 8.46283 1.28547C8.84871 0.86147 9.2211 0.753786 9.83042 0.753786C10.0403 0.753786 10.2095 0.585531 10.2095 0.376893C10.2095 0.168256 10.0403 0 9.82363 0C9.07215 0 8.57116 0.181716 8.00922 0.686485C7.45405 0.181716 6.95306 0 6.19479 0C5.9849 0 5.81564 0.168256 5.81564 0.376893ZM10.7105 5.63322C11.5297 5.63322 12.1932 4.97364 12.1932 4.15928C12.1932 3.35166 11.5297 2.69209 10.7105 2.69209C9.89136 2.69209 9.23462 3.35166 9.23462 4.15928C9.23462 4.97364 9.89136 5.63322 10.7105 5.63322Z" fill="white"/>
</g>
<rect x="2.21213" y="11.8522" width="16.4615" height="0.7" rx="0.35" transform="rotate(-45 2.21213 11.8522)" fill="white" stroke="#1E1E1E" stroke-width="0.3"/>
</g>
<defs>
<clipPath id="clip0_539_910">
<rect width="16" height="12" fill="white"/>
</clipPath>
<clipPath id="clip1_539_910">
<rect width="16.1538" height="12" fill="white"/>
</clipPath>
</defs>
</svg>
