<svg width="18" height="18" viewBox="0 0 18 18" fill="none" xmlns="http://www.w3.org/2000/svg">
<g clip-path="url(#clip0_624_151)">
<g clip-path="url(#clip1_624_151)">
<path d="M4.36911 17.8836C4.69336 17.8836 4.95941 17.6175 4.95941 17.2933C4.95941 16.9691 4.69336 16.703 4.36911 16.703C4.04486 16.703 3.77881 16.9691 3.77881 17.2933C3.77881 17.6175 4.04486 17.8836 4.36911 17.8836ZM7.14601 17.8836C7.47025 17.8836 7.7363 17.6175 7.7363 17.2933C7.7363 16.9691 7.47025 16.703 7.14601 16.703C6.82177 16.703 6.55572 16.9691 6.55572 17.2933C6.55572 17.6175 6.82177 17.8836 7.14601 17.8836ZM9.9146 17.8836C10.2388 17.8836 10.5049 17.6175 10.5049 17.2933C10.5049 16.9691 10.2388 16.703 9.9146 16.703C9.59036 16.703 9.32431 16.9691 9.32431 17.2933C9.32431 17.6175 9.59036 17.8836 9.9146 17.8836Z" fill="#03658C"/>
<path d="M4.36911 15.406C4.69336 15.406 4.95941 15.1399 4.95941 14.8157C4.95941 14.4915 4.69336 14.2254 4.36911 14.2254C4.04486 14.2254 3.77881 14.4915 3.77881 14.8157C3.77881 15.1399 4.04486 15.406 4.36911 15.406ZM7.14601 15.406C7.47025 15.406 7.7363 15.1399 7.7363 14.8157C7.7363 14.4915 7.47025 14.2254 7.14601 14.2254C6.82177 14.2254 6.55572 14.4915 6.55572 14.8157C6.55572 15.1399 6.82177 15.406 7.14601 15.406ZM9.9146 15.406C10.2388 15.406 10.5049 15.1399 10.5049 14.8157C10.5049 14.4915 10.2388 14.2254 9.9146 14.2254C9.59036 14.2254 9.32431 14.4915 9.32431 14.8157C9.32431 15.1399 9.59036 15.406 9.9146 15.406Z" fill="#03658C"/>
<path d="M4.36911 12.9201C4.69336 12.9201 4.95941 12.6623 4.95941 12.3298C4.95941 12.0055 4.69336 11.7395 4.36911 11.7395C4.04486 11.7395 3.77881 12.0055 3.77881 12.3298C3.77881 12.6623 4.04486 12.9201 4.36911 12.9201ZM7.14601 12.9201C7.47025 12.9201 7.7363 12.6623 7.7363 12.3298C7.7363 12.0055 7.47025 11.7395 7.14601 11.7395C6.82177 11.7395 6.55572 12.0055 6.55572 12.3298C6.55572 12.6623 6.82177 12.9201 7.14601 12.9201ZM9.9146 12.9201C10.2388 12.9201 10.5049 12.6623 10.5049 12.3298C10.5049 12.0055 10.2388 11.7395 9.9146 11.7395C9.59036 11.7395 9.32431 12.0055 9.32431 12.3298C9.32431 12.6623 9.59036 12.9201 9.9146 12.9201Z" fill="#03658C"/>
<path d="M11.0786 0H8.82544C7.41206 0 6.53077 0.864664 6.53077 2.2448V3.70808H7.78619V2.2448C7.78619 1.63788 8.17696 1.26374 8.82544 1.26374H11.0786C12.8744 1.26374 14.0301 2.51085 14.0301 4.43972V17.3432C14.0301 17.7173 14.2878 17.9834 14.6536 17.9834C15.0194 17.9834 15.2855 17.7173 15.2855 17.3432V4.43972C15.2855 1.73764 13.6476 0 11.0786 0ZM1.80005 10.1598C1.80005 10.4591 2.04947 10.7002 2.34878 10.7002H11.9682C12.2675 10.7002 12.5086 10.4591 12.5086 10.1598C12.5086 9.86051 12.2758 9.61106 11.9848 9.61106H11.9349C11.8684 7.82355 10.7294 6.27713 9.15803 5.54547V4.90529C9.15803 3.75796 8.32659 2.90993 7.15431 2.90993C5.98203 2.90993 5.15062 3.75796 5.15062 4.90529V5.54547C3.57926 6.27713 2.44023 7.82355 2.37372 9.61106H2.33215C2.04116 9.61106 1.80005 9.86051 1.80005 10.1598Z" fill="#03658C"/>
</g>
<rect x="0.212132" y="16.7889" width="23.4431" height="1.11653" rx="0.558265" transform="rotate(-45 0.212132 16.7889)" fill="#03658C" stroke="#CDE0E8" stroke-width="0.3"/>
</g>
<defs>
<clipPath id="clip0_624_151">
<rect width="18" height="18" fill="white"/>
</clipPath>
<clipPath id="clip1_624_151">
<rect width="13.6434" height="18" fill="white" transform="translate(1.80005)"/>
</clipPath>
</defs>
</svg>
