<svg width="53" height="78" viewBox="0 0 53 78" fill="none" xmlns="http://www.w3.org/2000/svg">
<path fill-rule="evenodd" clip-rule="evenodd" d="M24.4586 25.9614C24.7973 25.9221 25.1712 25.8941 25.5763 25.8789L24.5205 29.7502L24.5289 29.7525C23.2523 29.7241 21.7946 29.8746 22.4562 30.6251C23.479 31.7851 25.4094 33.255 28.6946 31.9444C30.8869 31.0699 29.2554 30.427 27.5395 30.0822L28.6588 25.9782C32.9095 26.3662 38.5973 27.8058 43.3867 31.0583C42.7248 31.0741 41.817 31.035 40.6159 30.9354C39.4057 30.7188 38.5275 30.8249 37.9484 31.2997C37.3642 31.7785 37.2376 32.509 37.2096 33.1247C37.1957 33.4305 37.2054 33.7464 37.2142 34.0358L37.2152 34.069C37.2246 34.3763 37.2319 34.6515 37.2168 34.8996C37.1849 35.423 37.0645 35.6182 36.8958 35.7025C36.592 35.8544 36.1978 35.8944 35.7071 35.8194C35.2173 35.7446 34.6717 35.5614 34.1008 35.3147C33.5323 35.069 32.9585 34.7693 32.412 34.4726C32.26 34.3901 32.1088 34.3071 31.9602 34.2255L31.9596 34.2251C31.5833 34.0185 31.2238 33.821 30.9092 33.6637C30.6451 33.5317 30.382 33.4558 30.117 33.4539C29.8473 33.452 29.6091 33.5269 29.3991 33.6466C29.0229 33.8612 28.7138 34.241 28.4428 34.5738L28.4214 34.6001L28.4129 34.6106C27.8282 35.3286 27.1624 36.1462 25.8302 36.5268C25.2631 36.6889 24.803 36.5562 24.3538 36.2459C23.8969 35.9303 23.4882 35.4573 23.0397 34.9383L22.9788 34.8678C22.5369 34.3568 22.029 33.7751 21.4352 33.4699C21.1224 33.3091 20.7714 33.2159 20.3844 33.2491C20 33.2821 19.6214 33.4364 19.245 33.7028C18.2224 34.4265 17.4362 34.9349 16.8117 35.2382C16.1765 35.5468 15.7956 35.599 15.5469 35.5392C15.3233 35.4855 15.0866 35.3099 14.82 34.8188C14.5514 34.3241 14.2994 33.5953 14.0097 32.5811C13.8832 32.1385 13.679 31.7821 13.3825 31.5316C13.0827 31.2783 12.7316 31.1695 12.3792 31.1485C11.7113 31.1087 10.9674 31.3828 10.3302 31.6549C10.0985 31.7538 9.87943 31.8529 9.67149 31.9469L9.67137 31.947L9.67122 31.9471L9.67117 31.9471L9.67114 31.9471L9.67113 31.9471C9.2585 32.1338 8.88973 32.3006 8.55311 32.4069C8.32032 32.4804 8.1605 32.5041 8.05834 32.4986C13.1378 28.1546 19.6259 26.5217 24.4586 25.9614ZM7.27562 33.2006C2.40486 37.7815 -0.931274 45.0987 0.232644 56.7377C2.33436 77.7546 24.4586 77.7546 29.8279 77.7546C36.073 77.7546 56.214 70.7862 52.5604 45.5859C51.6583 39.3636 48.524 34.9691 44.5951 31.9336C44.5538 31.9435 44.512 31.9526 44.4699 31.9609C44.2104 32.012 43.8966 32.0419 43.5301 32.0545C42.797 32.0798 41.8023 32.0377 40.5091 31.93L40.485 31.928L40.4612 31.9236C39.3249 31.717 38.8169 31.8808 38.5823 32.0731C38.3488 32.2644 38.2342 32.6061 38.2086 33.17C38.1965 33.4371 38.205 33.7196 38.2142 34.0211L38.2148 34.0386C38.2239 34.3377 38.2333 34.659 38.2149 34.9604C38.1798 35.5361 38.0322 36.2524 37.343 36.5969C36.7889 36.874 36.1645 36.9008 35.5561 36.808C34.9468 36.7149 34.3128 36.4957 33.7042 36.2327C33.0932 35.9687 32.4875 35.6515 31.9348 35.3514C31.7703 35.2621 31.6118 35.1751 31.4593 35.0913L31.4593 35.0913C31.0911 34.8891 30.7582 34.7063 30.462 34.5581C30.2971 34.4757 30.185 34.4544 30.1098 34.4539C30.0394 34.4534 29.9728 34.4707 29.8945 34.5153C29.7044 34.6237 29.5105 34.8464 29.1968 35.2316L29.1664 35.2689C28.5756 35.995 27.7405 37.021 26.105 37.4883C25.1852 37.7511 24.4192 37.5064 23.7854 37.0687C23.2192 36.6776 22.7321 36.1128 22.3096 35.6229L22.2224 35.5219C21.7492 34.9748 21.3671 34.5592 20.9781 34.3593C20.7994 34.2675 20.6357 34.2312 20.47 34.2455C20.3017 34.2599 20.0897 34.3301 19.8227 34.519C18.7966 35.2453 17.9529 35.7956 17.2486 36.1377C16.5552 36.4746 15.9085 36.6546 15.3132 36.5115C14.6928 36.3624 14.269 35.8999 13.9411 35.296C13.6152 34.6956 13.3386 33.8725 13.0481 32.8558C12.9601 32.5477 12.8427 32.3847 12.7371 32.2954C12.6348 32.209 12.5034 32.1577 12.3197 32.1467C11.9152 32.1226 11.3724 32.2972 10.7229 32.5746C10.542 32.6518 10.3506 32.7382 10.1561 32.8261C9.71063 33.0272 9.24809 33.2361 8.85421 33.3605C8.56512 33.4518 8.24745 33.5213 7.94633 33.4929C7.70183 33.4698 7.46475 33.3805 7.27562 33.2006Z" fill="#012838"/>
<path fill-rule="evenodd" clip-rule="evenodd" d="M26.563 31.9833L34.6552 1.23311L32.721 0.724121L24.6068 31.5581C25.1183 31.7794 25.7714 31.9532 26.563 31.9833ZM26.3032 32.9705C25.5504 32.9187 24.8972 32.754 24.3499 32.5344L24.1427 33.3217L26.0768 33.8307L26.3032 32.9705Z" fill="#012838"/>
</svg>
