<svg width="23" height="18" viewBox="0 0 23 18" fill="none" xmlns="http://www.w3.org/2000/svg">
<g clip-path="url(#clip0_624_159)">
<path d="M6.59529 1.22032H16.291C16.6184 1.22032 16.8863 0.945004 16.8863 0.617594C16.8863 0.290188 16.6184 0.0223083 16.291 0.0223083H6.59529C6.26788 0.0223083 6 0.290188 6 0.617594C6 0.945004 6.26788 1.22032 6.59529 1.22032ZM11.4469 9.99338C14.4605 9.99338 16.6184 9.22696 16.6184 8.14054C16.6184 7.0616 14.4456 6.3026 11.4469 6.3026C8.44812 6.3026 6.26788 7.0616 6.26788 8.14054C6.26788 9.22696 8.44812 9.99338 11.4469 9.99338ZM11.1939 13.5353H11.6924C14.1926 13.5353 16.105 12.0769 16.5366 9.65107C15.5246 10.3729 13.7164 10.7821 11.4469 10.7821C9.18479 10.7821 7.36172 10.3729 6.35717 9.64364C6.77387 12.0769 8.69367 13.5353 11.1939 13.5353ZM11.4469 18C12.6523 18 14.2596 17.6726 14.9665 16.9657C15.16 16.7722 15.1674 16.5192 15.0856 16.2513L14.3563 13.8181C13.5453 14.1752 12.6226 14.3613 11.6999 14.3613H11.1641C10.2563 14.3613 9.34105 14.1827 8.52997 13.833L7.80074 16.2513C7.71889 16.5192 7.73377 16.7722 7.9198 16.9657C8.63415 17.6726 10.234 18 11.4469 18ZM15.7404 6.15375L16.0306 2.04628H6.85572L7.15337 6.15375C8.21744 5.71474 9.7131 5.47663 11.4469 5.47663C13.1807 5.47663 14.6763 5.71474 15.7404 6.15375Z" fill="#03658C"/>
<rect x="6.20408" y="17.5151" width="20.0997" height="1.11653" rx="0.558265" transform="rotate(-60.8322 6.20408 17.5151)" fill="#03658C" stroke="#CDE0E8" stroke-width="0.3"/>
</g>
<defs>
<clipPath id="clip0_624_159">
<rect width="11.0277" height="18" fill="white" transform="translate(6)"/>
</clipPath>
</defs>
</svg>
