<svg width="16" height="12" viewBox="0 0 16 12" fill="none" xmlns="http://www.w3.org/2000/svg">
<g clip-path="url(#clip0_544_919)">
<path d="M4.71287 11.9224C4.92904 11.9224 5.1064 11.7451 5.1064 11.5289C5.1064 11.3127 4.92904 11.1354 4.71287 11.1354C4.4967 11.1354 4.31934 11.3127 4.31934 11.5289C4.31934 11.7451 4.4967 11.9224 4.71287 11.9224ZM6.56414 11.9224C6.7803 11.9224 6.95767 11.7451 6.95767 11.5289C6.95767 11.3127 6.7803 11.1354 6.56414 11.1354C6.34798 11.1354 6.17061 11.3127 6.17061 11.5289C6.17061 11.7451 6.34798 11.9224 6.56414 11.9224ZM8.40986 11.9224C8.62602 11.9224 8.80339 11.7451 8.80339 11.5289C8.80339 11.3127 8.62602 11.1354 8.40986 11.1354C8.1937 11.1354 8.01634 11.3127 8.01634 11.5289C8.01634 11.7451 8.1937 11.9224 8.40986 11.9224Z" fill="white"/>
<path d="M4.71287 10.2707C4.92904 10.2707 5.1064 10.0933 5.1064 9.87717C5.1064 9.66101 4.92904 9.48364 4.71287 9.48364C4.4967 9.48364 4.31934 9.66101 4.31934 9.87717C4.31934 10.0933 4.4967 10.2707 4.71287 10.2707ZM6.56414 10.2707C6.7803 10.2707 6.95767 10.0933 6.95767 9.87717C6.95767 9.66101 6.7803 9.48364 6.56414 9.48364C6.34798 9.48364 6.17061 9.66101 6.17061 9.87717C6.17061 10.0933 6.34798 10.2707 6.56414 10.2707ZM8.40986 10.2707C8.62602 10.2707 8.80339 10.0933 8.80339 9.87717C8.80339 9.66101 8.62602 9.48364 8.40986 9.48364C8.1937 9.48364 8.01634 9.66101 8.01634 9.87717C8.01634 10.0933 8.1937 10.2707 8.40986 10.2707Z" fill="white"/>
<path d="M4.71287 8.61338C4.92904 8.61338 5.1064 8.44154 5.1064 8.21982C5.1064 8.00366 4.92904 7.82629 4.71287 7.82629C4.4967 7.82629 4.31934 8.00366 4.31934 8.21982C4.31934 8.44154 4.4967 8.61338 4.71287 8.61338ZM6.56414 8.61338C6.7803 8.61338 6.95767 8.44154 6.95767 8.21982C6.95767 8.00366 6.7803 7.82629 6.56414 7.82629C6.34798 7.82629 6.17061 8.00366 6.17061 8.21982C6.17061 8.44154 6.34798 8.61338 6.56414 8.61338ZM8.40986 8.61338C8.62602 8.61338 8.80339 8.44154 8.80339 8.21982C8.80339 8.00366 8.62602 7.82629 8.40986 7.82629C8.1937 7.82629 8.01634 8.00366 8.01634 8.21982C8.01634 8.44154 8.1937 8.61338 8.40986 8.61338Z" fill="white"/>
<path d="M9.18568 0H7.6836C6.74134 0 6.15381 0.576443 6.15381 1.49654V2.47205H6.99076V1.49654C6.99076 1.09192 7.25128 0.842493 7.6836 0.842493H9.18568C10.3829 0.842493 11.1533 1.6739 11.1533 2.95982V11.5621C11.1533 11.8115 11.3252 11.9889 11.569 11.9889C11.8129 11.9889 11.9903 11.8115 11.9903 11.5621V2.95982C11.9903 1.15843 10.8984 0 9.18568 0ZM3 6.77321C3 6.97274 3.16628 7.13347 3.36582 7.13347H9.77874C9.97827 7.13347 10.139 6.97274 10.139 6.77321C10.139 6.57368 9.98383 6.40738 9.78984 6.40738H9.75658C9.71222 5.2157 8.95289 4.18476 7.90532 3.69698V3.27019C7.90532 2.50531 7.35103 1.93995 6.5695 1.93995C5.78799 1.93995 5.23371 2.50531 5.23371 3.27019V3.69698C4.18614 4.18476 3.42679 5.2157 3.38245 6.40738H3.35473C3.16074 6.40738 3 6.57368 3 6.77321Z" fill="white"/>
</g>
<defs>
<clipPath id="clip0_544_919">
<rect width="9.09561" height="12" fill="white" transform="translate(3)"/>
</clipPath>
</defs>
</svg>
