<svg width="23" height="18" viewBox="0 0 23 18" fill="none" xmlns="http://www.w3.org/2000/svg">
<g clip-path="url(#clip0_626_59)">
<mask id="mask0_626_59" style="mask-type:luminance" maskUnits="userSpaceOnUse" x="0" y="0" width="23" height="17">
<path d="M22.8824 0H0V16.9984H22.8824V0Z" fill="white"/>
</mask>
<g mask="url(#mask0_626_59)">
<path d="M11.3453 11.8407C13.0428 11.8407 13.5223 10.8015 15.028 10.4202L8.38189 3.54649C7.95033 3.10795 7.31736 3.0412 6.79952 3.41303L3.04011 6.07288C2.38799 6.52099 2.45511 7.20737 2.82914 7.60777C3.13602 7.95103 3.70185 8.09399 4.23889 7.71268L7.28864 5.5676L9.01486 7.33131C9.20666 7.53154 9.26422 7.83662 8.9669 8.03678L5.41853 10.3534C5.8309 10.3153 6.27203 10.2963 6.78032 10.3153C8.95733 10.4106 9.36011 11.8407 11.3453 11.8407ZM0.537055 14.3576H1.50568C4.06627 14.3576 4.65128 12.794 6.42547 12.794C8.19968 12.794 8.78469 14.3576 11.3453 14.3576C13.9155 14.3576 14.4909 12.794 16.2747 12.794C18.0489 12.794 18.6243 14.3576 21.1945 14.3576H22.163C22.4605 14.3576 22.7002 14.1288 22.7002 13.8332C22.7002 13.5377 22.4605 13.2993 22.163 13.2993H21.1945C19.3532 13.2993 18.7298 11.7358 16.2747 11.7358C13.81 11.7358 13.1866 13.2993 11.3453 13.2993C9.50398 13.2993 8.89021 11.7358 6.42547 11.7358C3.97038 11.7358 3.347 13.2993 1.50568 13.2993H0.537055C0.230167 13.2993 0 13.5377 0 13.8332C0 14.1288 0.230167 14.3576 0.537055 14.3576ZM0.537055 16.9888H1.50568C4.06627 16.9888 4.65128 15.4158 6.42547 15.4158C8.19968 15.4158 8.78469 16.9888 11.3453 16.9888C13.9155 16.9888 14.4909 15.4158 16.2747 15.4158C18.0489 15.4158 18.6243 16.9888 21.1945 16.9888H22.163C22.4605 16.9888 22.7002 16.7505 22.7002 16.4549C22.7002 16.1594 22.4605 15.9211 22.163 15.9211H21.1945C19.3532 15.9211 18.7298 14.3576 16.2747 14.3576C13.81 14.3576 13.1866 15.9211 11.3453 15.9211C9.50398 15.9211 8.89021 14.3576 6.42547 14.3576C3.97038 14.3576 3.347 15.9211 1.50568 15.9211H0.537055C0.230167 15.9211 0 16.1594 0 16.4549C0 16.7505 0.230167 16.9888 0.537055 16.9888ZM8.23802 0.533881C8.23802 0.829422 8.47778 1.06776 8.7751 1.06776C9.63823 1.06776 10.1657 1.22031 10.7123 1.82092C10.9233 2.04972 11.1343 2.14506 11.3453 2.14506C11.5659 2.14506 11.7769 2.04972 11.9879 1.82092C12.5345 1.22031 13.062 1.06776 13.9251 1.06776C14.2224 1.06776 14.4621 0.829422 14.4621 0.533881C14.4621 0.238339 14.2224 0 13.9155 0C12.851 0 12.1413 0.257407 11.3453 0.972426C10.5589 0.257407 9.84922 0 8.7751 0C8.47778 0 8.23802 0.238339 8.23802 0.533881ZM15.1718 7.97962C16.3322 7.97962 17.2721 7.04532 17.2721 5.89174C17.2721 4.74773 16.3322 3.81343 15.1718 3.81343C14.0114 3.81343 13.0811 4.74773 13.0811 5.89174C13.0811 7.04532 14.0114 7.97962 15.1718 7.97962Z" fill="#03658C"/>
</g>
</g>
<defs>
<clipPath id="clip0_626_59">
<rect width="22.88" height="18" fill="white"/>
</clipPath>
</defs>
</svg>
