<svg width="19" height="22" viewBox="0 0 19 22" fill="none" xmlns="http://www.w3.org/2000/svg">
<g clip-path="url(#clip0_334_53)">
<path d="M15.3419 3.21229C14.3139 2.39884 10.9048 3.85773 9.43355 4.94744C8.97923 5.33996 8.55063 5.76713 8.15271 6.22402C7.25779 6.54866 6.04316 7.1269 5.03096 8.10097L4.40101 8.69339L5.74957 9.17463C4.92691 11.0886 4.73897 13.3257 4.63954 14.393C4.44026 14.4568 4.23803 14.5287 4.03284 14.6086C2.44993 15.2254 1.40179 16.4154 1.35821 16.4657L0.888914 17.0092L1.39799 17.2866C1.45102 17.3149 2.59109 17.9117 3.8983 17.776C4.06597 19.0797 4.90826 20.051 4.94777 20.0979L5.34209 20.5359L5.75595 19.9485C5.7949 19.8946 6.71338 18.6018 6.95083 16.9195C6.98117 16.7055 7.00452 16.4954 7.02089 16.2892C8.03947 15.9481 10.9479 14.0093 12.2322 13.0615L12.779 14.6467L13.2123 13.8985C13.9246 12.6969 14.2308 11.534 14.3409 10.5887C14.6996 10.0899 15.0218 9.5678 15.3038 9.02828C15.9251 7.83964 16.3699 4.02575 15.3419 3.21229Z" fill="#012838"/>
</g>
<defs>
<clipPath id="clip0_334_53">
<rect width="21.5274" height="17.2495" fill="white" transform="translate(0.819092 21.5563) rotate(-90)"/>
</clipPath>
</defs>
</svg>
