<svg width="40" height="37" viewBox="0 0 40 37" fill="none" xmlns="http://www.w3.org/2000/svg">
<path d="M6.97674 1.03949C10.8814 -0.857293 15.7005 -0.283916 19.9995 3.80533C24.3014 -0.283769 29.1181 -0.857536 33.0233 1.03949C37.1442 3.04213 40 7.69188 40 13.0533C40 18.3239 37.9349 22.343 35.2242 25.5852C32.5637 28.77 29.1702 31.3163 26.5172 33.5404C25.5628 34.339 24.5414 35.1891 23.5033 35.8336C22.467 36.4761 21.2837 37 20 37C18.7163 37 17.533 36.4781 16.4967 35.8336C15.4605 35.1891 14.4372 34.339 13.4828 33.5404C12.1023 32.3838 6.15385 27.3478 2.03163 21.5028C0.781395 19.0731 0 16.2916 0 13.0533C0 7.69188 2.85767 3.04213 6.97674 1.03949Z" fill="#FEFCFA"/>
<path d="M20.8857 10.1145C23.0327 7.81741 25.7922 7.78278 27.9383 8.77972L12.0619 8.77963C13.1474 8.27543 14.3201 8.04666 15.4875 8.2113C16.6427 8.37423 17.8769 8.93363 19.0887 10.145L20.0029 11.059L20.8857 10.1145Z" fill="#EC5167" stroke="#EC5167" stroke-width="2.5"/>
</svg>
