<svg width="48" height="48" viewBox="0 0 48 48" fill="none" xmlns="http://www.w3.org/2000/svg">
<path d="M2 17.9237C2 28.6628 10.8775 34.3846 17.3744 39.5079C19.6667 41.3143 21.875 43.017 24.0833 43.017C26.2917 43.017 28.5 41.3165 30.7923 39.5057C37.2914 34.3868 46.1667 28.6628 46.1667 17.9259C46.1667 7.18896 34.0208 -0.432002 24.0833 9.89416C14.1458 -0.432002 2 7.18454 2 17.9237Z" fill="#FEFCFA"/>
<path d="M9.98767 20.4558C9.98767 27.1452 15.6542 30.7094 19.8011 33.9007C21.2643 35.0259 22.6738 36.0865 24.0834 36.0865C25.493 36.0865 26.9026 35.0273 28.3657 33.8993C32.5141 30.7107 38.1792 27.1452 38.1792 20.4572C38.1792 13.7691 30.4265 9.02203 24.0834 15.4542C17.7403 9.02203 9.98767 13.7664 9.98767 20.4558Z" fill="#EC5167"/>
</svg>
