<svg width="11" height="18" viewBox="0 0 11 18" fill="none" xmlns="http://www.w3.org/2000/svg">
<path d="M0.201172 8.94922C0.210938 8.61719 0.328125 8.33398 0.591797 8.08008L8.20898 0.628906C8.41406 0.414062 8.6875 0.306641 9 0.306641C9.63477 0.306641 10.1328 0.794922 10.1328 1.42969C10.1328 1.74219 10.0059 2.02539 9.79102 2.25L2.92578 8.94922L9.79102 15.6484C10.0059 15.8633 10.1328 16.1465 10.1328 16.459C10.1328 17.1035 9.63477 17.5918 9 17.5918C8.6875 17.5918 8.41406 17.4844 8.20898 17.2695L0.591797 9.81836C0.328125 9.56445 0.201172 9.28125 0.201172 8.94922Z" fill="white"/>
</svg>
